<svg xmlns="http://www.w3.org/2000/svg" width="113.76" height="51.203" viewBox="0 0 113.76 51.203">
  <g id="Group_4" data-name="Group 4" transform="translate(-10.164 -11.358)">
    <path id="Path_8" data-name="Path 8" d="M12.333,28.824V22.757H10.164v-4.3h2.312V15.236l4.982-1.356v4.582h3.425v4.3H17.458v5.71a1.15,1.15,0,0,0,1.227,1.184h2.2v4.3a24.214,24.214,0,0,1-2.826.185c-3.6,0-5.724-1.812-5.724-5.309" transform="translate(0 -0.866)" fill="#0c662f"/>
    <path id="Path_9" data-name="Path 9" d="M31.41,36.152V20.665h4.7v1.128h.185a5.579,5.579,0,0,1,3.869-1.5,6.824,6.824,0,0,1,1.227.1v4.953H39.332a2.835,2.835,0,0,0-2.783,3.011v7.794Z" transform="translate(-7.299 -3.07)" fill="#0c662f"/>
    <path id="Path_10" data-name="Path 10" d="M49.026,32.581c0-2.427,1.656-3.939,4.153-4.739l4.154-1.313v-.371A1.364,1.364,0,0,0,55.849,24.7c-.756,0-1.4.614-1.513,1.67l-4.881-.786a6.351,6.351,0,0,1,6.48-5.424c4.61,0,6.637,2.37,6.637,6v9.948H57.89V35.065H57.7a5.513,5.513,0,0,1-4.153,1.5c-2.884,0-4.525-1.669-4.525-3.982m8.321-2.1v-.671l-2.084.628c-.671.185-1.014.542-1.014,1.07,0,.4.328.714,1.014.714a2.084,2.084,0,0,0,2.084-1.741" transform="translate(-13.351 -3.025)" fill="#0c662f"/>
    <path id="Path_11" data-name="Path 11" d="M73.557,25.346c0-4.8,3.412-8.208,7.779-8.208a5.37,5.37,0,0,1,3.7,1.327V11.358h5.139V33.082h-4.7V32.04h-.185a5.3,5.3,0,0,1-3.955,1.5c-4.367,0-7.779-3.4-7.779-8.193m11.662,0a3.269,3.269,0,1,0-6.523,0,3.269,3.269,0,1,0,6.523,0" transform="translate(-21.778)" fill="#0c662f"/>
    <path id="Path_12" data-name="Path 12" d="M103.411,28.356a7.913,7.913,0,0,1,8.25-8.193c4.211,0,7.808,2.8,7.808,8.18a10.556,10.556,0,0,1-.115,1.527l-10.619-.014a2.957,2.957,0,0,0,3.1,2.455,3.323,3.323,0,0,0,3.1-1.57l4.167,1.77c-1.241,2.541-4.3,4.054-7.35,4.054a7.984,7.984,0,0,1-8.336-8.207M114.3,26.714a2.643,2.643,0,0,0-2.655-2.455,2.911,2.911,0,0,0-2.925,2.455Z" transform="translate(-32.034 -3.025)" fill="#0c662f"/>
    <path id="Path_13" data-name="Path 13" d="M132.878,36.152V20.665h4.7v1.128h.185a5.58,5.58,0,0,1,3.869-1.5,6.814,6.814,0,0,1,1.227.1v4.953H140.8a2.835,2.835,0,0,0-2.783,3.011v7.794Z" transform="translate(-42.157 -3.07)" fill="#0c662f"/>
    <path id="Path_14" data-name="Path 14" d="M173.846,19.9l.971-8.393h5.338L177.372,19.9Z" transform="translate(-56.231 -0.052)" fill="#d60812"/>
    <path id="Path_15" data-name="Path 15" d="M152.175,31.683l4.6-.385a1.714,1.714,0,0,0,1.7,1.271c.8,0,1.3-.272,1.3-.743,0-.556-.342-.756-1.37-1.17l-2.5-.971c-2.37-.913-3.326-2.369-3.326-4.61,0-2.941,2.427-4.868,6.252-4.868s5.667,1.913,5.938,4.525l-4.6.385a1.256,1.256,0,0,0-1.342-1.056c-.7,0-1.113.243-1.113.628s.214.585.928.885l2.469.971c2.5.956,3.8,2.384,3.8,4.9,0,3.225-2.312,5.11-6.423,5.11-3.825,0-5.838-1.828-6.309-4.868" transform="translate(-48.786 -3.04)" fill="#0c662f"/>
    <path id="Path_16" data-name="Path 16" d="M91.05,77.292V55.568h5.124v7.293a4.857,4.857,0,0,1,3.583-1.513c3.683,0,5.866,2.684,5.866,6.781v9.164H100.5v-9.32a1.946,1.946,0,0,0-1.969-2.013,2.555,2.555,0,0,0-2.355,2.7v8.636Z" transform="translate(-27.787 -15.188)" fill="#1a1818"/>
    <path id="Path_17" data-name="Path 17" d="M118.384,74.234V65.07h5.124V74.4a1.947,1.947,0,0,0,1.984,2,2.562,2.562,0,0,0,2.384-2.683V65.07H133V80.557h-4.683V79.514h-.2a5.57,5.57,0,0,1-3.854,1.5c-3.725,0-5.881-2.67-5.881-6.78" transform="translate(-37.178 -18.452)" fill="#1a1818"/>
    <path id="Path_18" data-name="Path 18" d="M151.143,76.25h-.186v1.042h-4.7V55.568H151.4v7.108a5.371,5.371,0,0,1,3.7-1.327c4.367,0,7.779,3.412,7.779,8.207s-3.412,8.193-7.779,8.193a5.3,5.3,0,0,1-3.953-1.5m6.594-6.694a3.269,3.269,0,1,0-3.254,3.483,3.175,3.175,0,0,0,3.254-3.483" transform="translate(-46.755 -15.188)" fill="#1a1818"/>
    <rect id="Rectangle_3" data-name="Rectangle 3" width="5.164" height="17.516" transform="translate(54.124 44.6)" fill="#0c662f"/>
    <rect id="Rectangle_4" data-name="Rectangle 4" width="5.164" height="11.324" transform="translate(45.382 50.792)" fill="#d60812"/>
  </g>
</svg>
